<?xml version="1.0" encoding="UTF-8" standalone="no"?>
<svg width="169px" height="45px" viewBox="0 0 169 45" version="1.1" xmlns="http://www.w3.org/2000/svg" xmlns:xlink="http://www.w3.org/1999/xlink" xmlns:sketch="http://www.bohemiancoding.com/sketch/ns">
    <!-- Generator: Sketch 3.5.1 (25234) - http://www.bohemiancoding.com/sketch -->
    <title>Page 1</title>
    <desc>Created with Sketch.</desc>
    <defs>
        <path id="path-1" d="M0,0.824433962 L168.238868,0.824433962 L168.238868,45 L0,45"></path>
        <path id="path-3" d="M0,0.824433962 L168.238868,0.824433962 L168.238868,45 L0,45 L0,0.824433962 Z"></path>
    </defs>
    <g id="Home" stroke="none" stroke-width="1" fill="none" fill-rule="evenodd" sketch:type="MSPage">
        <g id="Page-1" sketch:type="MSLayerGroup" transform="translate(0.000000, -0.687765)">
            <g id="Group-3">
                <mask id="mask-2" sketch:name="Clip 2" fill="white">
                    <use xlink:href="#path-1"></use>
                </mask>
                <g id="Clip-2"></g>
                <path d="M40.0547547,30.5015094 C39.0723962,32.8228302 37.6663585,34.9089623 35.8756981,36.6996226 C34.0841887,38.4911321 31.9989057,39.8971698 29.6775849,40.8786792 C27.2739057,41.8958491 24.7207925,42.4103774 22.0878679,42.4103774 C19.4549434,42.4103774 16.9018302,41.8958491 14.4981509,40.8786792 C12.1768302,39.8971698 10.0915472,38.4911321 8.30003774,36.6996226 C6.50937736,34.9089623 5.10333962,32.8228302 4.12098113,30.5015094 C3.10466038,28.0986792 2.58928302,25.544717 2.58928302,22.9117925 C2.58928302,20.2788679 3.10466038,17.7257547 4.12098113,15.3229245 C5.10333962,13.0007547 6.50937736,10.9154717 8.30003774,9.12481132 C10.0915472,7.33330189 12.1768302,5.92726415 14.4981509,4.94490566 C16.9018302,3.92858491 19.4549434,3.41320755 22.0878679,3.41320755 C24.7207925,3.41320755 27.2739057,3.92858491 29.6775849,4.94490566 C31.9989057,5.92726415 34.0841887,7.33330189 35.8756981,9.12481132 C37.6663585,10.9154717 39.0723962,13.0007547 40.0547547,15.3229245 C41.0710755,17.7257547 41.5864528,20.2788679 41.5864528,22.9117925 C41.5864528,25.544717 41.0710755,28.0986792 40.0547547,30.5015094 M42.4397547,14.3142453 C41.3266415,11.6838679 39.7346604,9.32179245 37.7062642,7.29339623 C35.6778679,5.26584906 33.3157925,3.67301887 30.6862642,2.56075472 C27.9616415,1.40858491 25.0689057,0.824433962 22.0878679,0.824433962 C19.1068302,0.824433962 16.2140943,1.40858491 13.4903208,2.56075472 C10.8599434,3.67301887 8.49786792,5.26584906 6.4694717,7.29339623 C4.44107547,9.32179245 2.84909434,11.6838679 1.73598113,14.3142453 C0.583811321,17.0380189 -0.000339622642,19.9307547 -0.000339622642,22.9117925 C-0.000339622642,25.8936792 0.583811321,28.7864151 1.73598113,31.5101887 C2.84909434,34.140566 4.44107547,36.5026415 6.4694717,38.5301887 C8.49786792,40.5585849 10.8599434,42.1514151 13.4903208,43.2636792 C16.2140943,44.4158491 19.1068302,45 22.0878679,45 C25.0689057,45 27.9616415,44.4158491 30.6862642,43.2636792 C33.3157925,42.1514151 35.6778679,40.5585849 37.7062642,38.5301887 C39.7346604,36.5026415 41.3266415,34.140566 42.4397547,31.5101887 C43.5919245,28.7864151 44.1760755,25.8936792 44.1760755,22.9117925 C44.1760755,19.9307547 43.5919245,17.0380189 42.4397547,14.3142453" id="Fill-1" fill="#FFFFFF" sketch:type="MSShapeGroup" mask="url(#mask-2)"></path>
            </g>
            <path d="M33.2259623,26.8958208 C33.2191698,27.1471415 33.0111509,27.3152547 32.8353962,27.4120472 C32.7037925,27.484217 32.5399245,27.4078019 32.5076604,27.2617642 C32.4439811,26.9645943 32.4312453,26.450066 32.8905849,25.9414811 C32.8905849,25.9414811 33.2378491,26.4577075 33.2259623,26.8958208 L33.2259623,26.8958208 Z M31.0557736,20.7248774 L30.2508679,20.1738396 C29.7711509,19.8291226 29.3754906,19.3740283 29.126717,18.8382736 C28.7853962,18.1063868 29.0638868,17.0323302 30.3069057,17.2522358 C30.3069057,17.2522358 31.0192642,18.845066 31.3656792,20.5177075 C31.4021887,20.6951604 31.2052075,20.8267642 31.0557736,20.7248774 L31.0557736,20.7248774 Z M32.2003019,17.3948774 L32.0568113,16.8820472 C32.637566,16.9813868 33.2047358,17.1605377 33.5409623,17.2794057 L33.8330377,17.4067642 C33.8279434,17.3982736 33.8228491,17.389783 33.8177547,17.3812925 C33.8406792,17.389783 33.852566,17.3948774 33.852566,17.3948774 C33.6912453,17.118934 33.5180377,16.8506321 33.3363396,16.5891226 C31.6093585,13.9714811 28.9441698,12.0458208 25.8289811,11.3045943 C25.2185094,9.80770755 23.9101132,8.80072642 23.3786038,8.43817925 C23.3038868,8.38723585 23.2053962,8.4585566 23.2308679,8.54600943 C23.5509623,9.64129245 23.4312453,10.8011038 23.4168113,10.9267642 C22.8649245,10.8630849 22.3045472,10.8299717 21.7356792,10.8299717 C17.457283,10.8299717 13.6102075,12.6749717 10.9458679,15.6127075 C10.4958679,16.0720472 10.0823774,16.5857264 9.71728302,17.1664811 C9.62813208,17.2980849 9.53983019,17.4305377 9.45407547,17.5646887 L9.47615094,17.5706321 C10.4576604,16.8761038 11.4408679,16.5296887 13.5329434,16.3259151 C13.5354906,16.3327075 13.5346415,16.3318585 13.5371887,16.3386509 C12.4945472,16.9737453 8.63898113,19.7527075 8.36049057,25.0228019 C8.89624528,24.2009151 9.86162264,23.1090283 11.2158679,22.579217 L11.202283,22.8033679 L11.1793585,22.6861981 C10.6215283,24.0786509 9.14416981,28.3298774 11.5011509,32.6014811 C11.5682264,31.4917642 11.7779434,29.8564811 12.3756792,28.1583679 L11.9494528,28.1583679 L11.9494528,28.7883679 C13.647566,32.8816698 18.2986981,35.3210094 23.1391698,35.3210094 C25.3934151,35.3210094 27.7062453,34.9508208 29.516434,33.2527075 L29.5189811,33.2527075 C24.926434,33.2527075 20.9944528,29.9074245 20.9944528,25.3131792 C20.9944528,23.1353491 22.1381321,21.4346887 22.9871887,19.9505377 L22.9871887,20.0812925 C22.9871887,22.3593113 25.0461509,24.2331792 27.3250189,24.2331792 C27.4939811,24.2331792 27.7665283,24.2365755 27.9303962,24.2170472 C28.0178491,24.2060094 28.1562453,24.2518585 28.2054906,24.3248774 L30.4266226,27.395066 C31.1780377,28.4181792 32.7080377,29.0074245 33.6173774,28.1583679 L33.6241698,28.1583679 C34.5335094,28.1583679 34.3883208,27.5088396 34.2821887,27.0359151 L32.2003019,17.3948774 Z" id="Fill-4" fill="#FFFFFF" sketch:type="MSShapeGroup"></path>
            <path d="M29.2597642,11.8338962 C28.8488208,10.646066 28.088066,9.72993396 27.7323113,9.34616038 C27.6711792,9.27908491 27.5591038,9.32663208 27.5641981,9.41748113 C27.5990094,10.0075755 27.5141038,10.5874811 27.4190094,11.0264434 C28.0566509,11.2471981 28.672217,11.5180472 29.2597642,11.8338962" id="Fill-6" fill="#FFFFFF" sketch:type="MSShapeGroup"></path>
            <path d="M64.8610472,21.6135 C64.9170849,21.7442547 64.8423679,21.8741604 64.693783,21.9488774 C63.612934,22.6196321 62.1585,23.0297264 60.7796321,23.0297264 C56.9401981,23.0297264 54.3675566,20.3458585 54.3675566,16.3204811 C54.3675566,12.2942547 56.9401981,9.61038679 60.7796321,9.61038679 C62.1585,9.61038679 63.612934,10.0204811 64.693783,10.6912358 C64.8423679,10.7659528 64.9170849,10.8967075 64.8610472,11.0274623 L63.6307642,13.617934 C63.5560472,13.7860472 63.4261415,13.8412358 63.2767075,13.7665189 C62.5872736,13.3759528 61.9165189,13.2451981 61.1150094,13.2451981 C59.4372736,13.2451981 58.319066,14.4754811 58.319066,16.3204811 C58.319066,18.1654811 59.4372736,19.3957642 61.1150094,19.3957642 C61.9165189,19.3957642 62.5872736,19.2650094 63.2767075,18.8735943 C63.4261415,18.7988774 63.5560472,18.8549151 63.6307642,19.0230283 L64.8610472,21.6135 Z" id="Fill-8" fill="#FFFFFF" sketch:type="MSShapeGroup"></path>
            <path d="M77.6083585,9.89032075 C77.7764717,9.89032075 77.8876981,10.0210755 77.8876981,10.1696604 L77.8876981,22.4894717 C77.8876981,22.6202264 77.7764717,22.7501321 77.6083585,22.7501321 L74.1229811,22.7501321 C73.9743962,22.7501321 73.8623208,22.6202264 73.8623208,22.4894717 L73.8623208,18.3146604 L71.2531698,18.3146604 L71.2531698,22.4894717 C71.2531698,22.6202264 71.1410943,22.7501321 70.9729811,22.7501321 L67.4876038,22.7501321 C67.3576981,22.7501321 67.2269434,22.6202264 67.2269434,22.4894717 L67.2269434,10.1696604 C67.2269434,10.0210755 67.3576981,9.89032075 67.4876038,9.89032075 L70.9729811,9.89032075 C71.1410943,9.89032075 71.2531698,10.0210755 71.2531698,10.1696604 L71.2531698,15.0347547 L73.8623208,15.0347547 L73.8623208,10.1696604 C73.8623208,10.0210755 73.9743962,9.89032075 74.1229811,9.89032075 L77.6083585,9.89032075 Z" id="Fill-10" fill="#FFFFFF" sketch:type="MSShapeGroup"></path>
            <path d="M89.4616981,19.3956792 C89.610283,19.3956792 89.7410377,19.5077547 89.7410377,19.6376604 L89.7410377,22.4896415 C89.7410377,22.6203962 89.610283,22.7503019 89.4616981,22.7503019 L80.7945283,22.7503019 C80.6646226,22.7503019 80.5338679,22.601717 80.4965094,22.4709623 L80.4965094,10.1511509 C80.4965094,9.98388679 80.5899057,9.89049057 80.7580189,9.89049057 L89.2375472,9.89049057 C89.4056604,9.89049057 89.535566,10.0203962 89.535566,10.1511509 L89.535566,12.9657736 C89.535566,13.1330377 89.4056604,13.2451132 89.2375472,13.2451132 L84.3733019,13.2451132 L84.3733019,14.7173774 L88.3248113,14.7173774 C88.4920755,14.7173774 88.5854717,14.8481321 88.5667925,14.9593585 L88.3061321,17.5693585 C88.2874528,17.6805849 88.1566981,17.8113396 87.989434,17.8113396 L84.3733019,17.8113396 L84.3733019,19.3956792 L89.4616981,19.3956792 Z" id="Fill-12" fill="#FFFFFF" sketch:type="MSShapeGroup"></path>
            <path d="M102.283302,21.6135 C102.33934,21.7442547 102.264623,21.8741604 102.116038,21.9488774 C101.035189,22.6196321 99.5807547,23.0297264 98.2018868,23.0297264 C94.3624528,23.0297264 91.7898113,20.3458585 91.7898113,16.3204811 C91.7898113,12.2942547 94.3624528,9.61038679 98.2018868,9.61038679 C99.5807547,9.61038679 101.035189,10.0204811 102.116038,10.6912358 C102.264623,10.7659528 102.33934,10.8967075 102.283302,11.0274623 L101.053019,13.617934 C100.978302,13.7860472 100.848396,13.8412358 100.698962,13.7665189 C100.009528,13.3759528 99.3387736,13.2451981 98.5372642,13.2451981 C96.8595283,13.2451981 95.7413208,14.4754811 95.7413208,16.3204811 C95.7413208,18.1654811 96.8595283,19.3957642 98.5372642,19.3957642 C99.3387736,19.3957642 100.009528,19.2650094 100.698962,18.8735943 C100.848396,18.7988774 100.978302,18.8549151 101.053019,19.0230283 L102.283302,21.6135 Z" id="Fill-14" fill="#FFFFFF" sketch:type="MSShapeGroup"></path>
            <path d="M115.64584,22.5268302 C115.739236,22.6575849 115.664519,22.7501321 115.515934,22.7501321 L111.191689,22.7501321 C111.060934,22.7501321 110.874142,22.6575849 110.800274,22.5268302 L108.489142,17.8672075 L108.489142,22.4894717 C108.489142,22.6202264 108.377066,22.7501321 108.208953,22.7501321 L104.910368,22.7501321 C104.779613,22.7501321 104.649708,22.6202264 104.649708,22.4894717 L104.649708,10.1696604 C104.649708,10.0210755 104.779613,9.89032075 104.910368,9.89032075 L108.208953,9.89032075 C108.377066,9.89032075 108.489142,10.0210755 108.489142,10.1696604 L108.489142,14.3444717 L110.725557,10.1136226 C110.800274,9.98371698 110.986217,9.89032075 111.15433,9.89032075 L115.235745,9.89032075 C115.385179,9.89032075 115.441217,9.98371698 115.3665,10.1136226 L111.675651,16.0222075 L115.64584,22.5268302 Z" id="Fill-16" fill="#FFFFFF" sketch:type="MSShapeGroup"></path>
            <path d="M132.120934,9.89032075 C132.270368,9.89032075 132.381594,10.0210755 132.381594,10.1696604 L132.381594,22.4894717 C132.381594,22.6202264 132.270368,22.7501321 132.120934,22.7501321 L128.672915,22.7501321 C128.523481,22.7501321 128.393575,22.6202264 128.393575,22.4894717 L128.393575,17.0096604 L126.511217,22.4707925 C126.455179,22.6202264 126.213198,22.7501321 126.045085,22.7501321 L123.994613,22.7501321 C123.827349,22.7501321 123.584519,22.6202264 123.528481,22.4707925 L121.646123,17.0096604 L121.646123,22.4894717 C121.646123,22.6202264 121.515368,22.7501321 121.366783,22.7501321 L117.918764,22.7501321 C117.770179,22.7501321 117.658104,22.6202264 117.658104,22.4894717 L117.658104,10.1696604 C117.658104,10.0210755 117.770179,9.89032075 117.918764,9.89032075 L121.814236,9.89032075 C122.056217,9.89032075 122.335557,10.0575849 122.447632,10.2630566 L125.020274,17.3823962 L127.592066,10.2630566 C127.704142,10.0575849 127.983481,9.89032075 128.225462,9.89032075 L132.120934,9.89032075 Z" id="Fill-18" fill="#FFFFFF" sketch:type="MSShapeGroup"></path>
            <path d="M140.618547,14.3448113 L139.612415,17.8862264 L141.624679,17.8862264 L140.618547,14.3448113 Z M147.179208,22.5084906 C147.235245,22.619717 147.160528,22.7504717 147.011094,22.7504717 L143.321094,22.7504717 C143.15383,22.7504717 143.004396,22.6570755 142.929679,22.5084906 L142.370151,20.5514151 L138.866943,20.5514151 L138.307415,22.5084906 C138.232698,22.6570755 138.084113,22.7504717 137.916,22.7504717 L134.226,22.7504717 C134.076566,22.7504717 134.001849,22.619717 134.057887,22.5084906 L138.270057,10.1326415 C138.326094,10.020566 138.531566,9.89066038 138.717509,9.89066038 L142.519585,9.89066038 C142.706377,9.89066038 142.911,10.020566 142.967038,10.1326415 L147.179208,22.5084906 Z" id="Fill-20" fill="#FFFFFF" sketch:type="MSShapeGroup"></path>
            <path d="M156.795453,9.89032075 C156.963566,9.89032075 157.074792,10.0210755 157.056113,10.1509811 L156.776774,12.984283 C156.758094,13.1328679 156.609509,13.2449434 156.478755,13.2449434 L153.701491,13.2449434 L153.701491,22.4894717 C153.701491,22.6202264 153.589415,22.7501321 153.44083,22.7501321 L150.142245,22.7501321 C149.992811,22.7501321 149.862057,22.6202264 149.862057,22.4894717 L149.862057,13.2449434 L146.768094,13.2449434 C146.63734,13.2449434 146.507434,13.1328679 146.507434,12.984283 L146.507434,10.1696604 C146.507434,10.0210755 146.63734,9.89032075 146.768094,9.89032075 L156.795453,9.89032075 Z" id="Fill-22" fill="#FFFFFF" sketch:type="MSShapeGroup"></path>
            <path d="M167.959104,19.3956792 C168.107689,19.3956792 168.238443,19.5077547 168.238443,19.6376604 L168.238443,22.4896415 C168.238443,22.6203962 168.107689,22.7503019 167.959104,22.7503019 L159.291934,22.7503019 C159.162028,22.7503019 159.031274,22.601717 158.993915,22.4709623 L158.993915,10.1511509 C158.993915,9.98388679 159.087311,9.89049057 159.255425,9.89049057 L167.734953,9.89049057 C167.903066,9.89049057 168.032972,10.0203962 168.032972,10.1511509 L168.032972,12.9657736 C168.032972,13.1330377 167.903066,13.2451132 167.734953,13.2451132 L162.870708,13.2451132 L162.870708,14.7173774 L166.822217,14.7173774 C166.989481,14.7173774 167.082877,14.8481321 167.064198,14.9593585 L166.803538,17.5693585 C166.784858,17.6805849 166.654104,17.8113396 166.48684,17.8113396 L162.870708,17.8113396 L162.870708,19.3956792 L167.959104,19.3956792 Z" id="Fill-24" fill="#FFFFFF" sketch:type="MSShapeGroup"></path>
            <path d="M62.687717,27.2548019 L61.5499811,28.6014057 C61.0430943,27.9832925 60.2925283,27.5969717 59.6073396,27.5969717 C58.383,27.5969717 57.4549811,28.5682925 57.4549811,29.8376321 C57.4549811,31.1290472 58.383,32.1122547 59.6073396,32.1122547 C60.2594151,32.1122547 61.0091321,31.7590472 61.5499811,31.2063113 L62.6987547,32.4213113 C61.8700755,33.271217 60.6457358,33.8341415 59.5088491,33.8341415 C57.1798868,33.8341415 55.4461132,32.1224434 55.4461132,29.8597075 C55.4461132,27.6300849 57.2231887,25.9523491 59.5742264,25.9523491 C60.723,25.9523491 61.9150755,26.4600849 62.687717,27.2548019" id="Fill-26" fill="#FFFFFF" sketch:type="MSShapeGroup"></path>
            <path d="M72.1375472,30.0370755 C72.9874528,30.0370755 73.4841509,29.6066038 73.4841509,28.7889623 C73.4841509,27.9840566 72.9874528,27.5756604 72.1375472,27.5756604 L70.6474528,27.5756604 L70.6474528,30.0370755 L72.1375472,30.0370755 Z M72.1918868,31.5815094 L72.1375472,31.5815094 L70.6474528,31.5815094 L70.6474528,33.7567925 L68.6827358,33.7567925 L68.6827358,26.0295283 L72.1375472,26.0295283 C74.1795283,26.0295283 75.3495283,27.0016981 75.3495283,28.7227358 C75.3495283,29.9046226 74.8528302,30.7545283 73.9477358,31.2070755 L75.570283,33.7567925 L73.3406604,33.7567925 L72.1918868,31.5815094 Z" id="Fill-28" fill="#FFFFFF" sketch:type="MSShapeGroup"></path>
            <path d="M84.0604245,27.5753208 L84.0604245,29.109566 L87.7470283,29.109566 L87.7470283,30.6548491 L84.0604245,30.6548491 L84.0604245,32.2111698 L88.2658019,32.2111698 L88.2658019,33.7564528 L82.0957075,33.7564528 L82.0957075,26.0300377 L88.1443868,26.0300377 L88.1443868,27.5753208 L84.0604245,27.5753208 Z" id="Fill-30" fill="#FFFFFF" sketch:type="MSShapeGroup"></path>
            <path d="M98.2133491,27.9840566 L97.0875,30.8419811 L99.3171226,30.8419811 L98.2133491,27.9840566 Z M96.5135377,32.3329245 L95.9506132,33.7567925 L93.9298585,33.7567925 L97.2641038,26.0295283 L99.2840094,26.0295283 L102.540142,33.7567925 L100.442972,33.7567925 L99.8910849,32.3329245 L96.5135377,32.3329245 Z" id="Fill-32" fill="#FFFFFF" sketch:type="MSShapeGroup"></path>
            <path d="M112.260481,27.6138679 L112.260481,33.7618868 L110.296613,33.7618868 L110.296613,27.6138679 L107.988877,27.6138679 L107.988877,26.024434 L114.589443,26.024434 L114.589443,27.6138679 L112.260481,27.6138679 Z" id="Fill-34" fill="#FFFFFF" sketch:type="MSShapeGroup"></path>
            <mask id="mask-4" sketch:name="Clip 37" fill="white">
                <use xlink:href="#path-3"></use>
            </mask>
            <g id="Clip-37"></g>
            <path d="M123.361132,26.0295283 L125.325,26.0295283 L125.325,33.7567925 L123.361132,33.7567925 L123.361132,26.0295283 Z" id="Fill-36" fill="#FFFFFF" sketch:type="MSShapeGroup" mask="url(#mask-4)"></path>
            <path d="M135.228142,29.8824623 C135.228142,31.184066 136.233425,32.1893491 137.413613,32.1893491 C138.606538,32.1893491 139.555783,31.184066 139.555783,29.8824623 C139.555783,28.5800094 138.606538,27.5976509 137.413613,27.5976509 C136.221538,27.5976509 135.228142,28.5800094 135.228142,29.8824623 M141.575689,29.8705755 C141.575689,32.1231226 139.786726,33.8339717 137.392387,33.8339717 C135.007387,33.8339717 133.220123,32.1333113 133.220123,29.8705755 C133.220123,27.6197264 135.007387,25.9521792 137.392387,25.9521792 C139.786726,25.9521792 141.575689,27.6307642 141.575689,29.8705755" id="Fill-38" fill="#FFFFFF" sketch:type="MSShapeGroup" mask="url(#mask-4)"></path>
            <path d="M152.28433,33.7566226 L148.72933,28.9985094 L148.72933,33.7566226 L146.886877,33.7566226 L146.886877,26.0293585 L148.619802,26.0293585 L152.184991,30.7985094 L152.184991,26.0293585 L154.017255,26.0293585 L154.017255,33.7566226 L152.28433,33.7566226 Z" id="Fill-39" fill="#FFFFFF" sketch:type="MSShapeGroup" mask="url(#mask-4)"></path>
            <path d="M166.795387,26.8132925 L166.055858,28.3483868 C165.239066,27.8729151 164.212557,27.541783 163.583406,27.541783 C163.07567,27.541783 162.7335,27.7294245 162.7335,28.1047075 C162.7335,29.4402736 166.817462,28.6786698 166.817462,31.471217 C166.817462,33.0173491 165.448783,33.8341415 163.726896,33.8341415 C162.435481,33.8341415 161.110953,33.3476321 160.194821,32.597066 L160.956425,31.0848962 C161.751142,31.7811226 162.943217,32.2438585 163.748972,32.2438585 C164.367085,32.2438585 164.753406,32.012066 164.753406,31.5714057 C164.753406,30.2018774 160.669443,31.0186698 160.669443,28.2813113 C160.669443,26.8574434 161.894632,25.9523491 163.748972,25.9523491 C164.863783,25.9523491 166.00067,26.2945189 166.795387,26.8132925" id="Fill-40" fill="#FFFFFF" sketch:type="MSShapeGroup" mask="url(#mask-4)"></path>
        </g>
    </g>
</svg>